<svg xmlns="http://www.w3.org/2000/svg" xmlns:xlink="http://www.w3.org/1999/xlink" width="500" zoomAndPan="magnify" viewBox="0 0 375 374.999991" height="500" preserveAspectRatio="xMidYMid meet" version="1.0"><defs><clipPath id="id1"><path d="M 37.5 137.445312 L 90 137.445312 L 90 197.445312 L 37.5 197.445312 Z M 37.5 137.445312 " clip-rule="nonzero"/></clipPath><clipPath id="id2"><path d="M 313 139 L 337.5 139 L 337.5 196 L 313 196 Z M 313 139 " clip-rule="nonzero"/></clipPath></defs><g clip-path="url(#id1)"><path fill="rgb(100%, 100%, 100%)" d="M 37.511719 166.527344 L 37.511719 195.335938 L 52.085938 195.335938 L 52.097656 181.371094 L 52.121094 167.40625 L 70.484375 182.425781 C 80.585938 190.683594 88.890625 197.445312 88.945312 197.445312 C 89.023438 197.445312 89.035156 192.765625 89.035156 168.703125 L 89.035156 139.960938 L 74.460938 139.960938 L 74.445312 153.804688 L 74.425781 167.65625 L 56.636719 153.222656 C 46.851562 145.28125 38.542969 138.546875 38.179688 138.25 L 37.511719 137.710938 Z M 37.511719 166.527344 " fill-opacity="1" fill-rule="nonzero"/></g><path fill="rgb(100%, 100%, 100%)" d="M 98.136719 167.648438 L 98.136719 195.335938 L 113.328125 195.335938 L 113.328125 174.929688 L 136.179688 174.929688 L 136.179688 162.140625 L 124.773438 162.125 L 113.359375 162.105469 L 113.339844 157.832031 L 113.328125 153.566406 L 138.4375 153.566406 L 138.4375 139.960938 L 98.136719 139.960938 Z M 98.136719 167.648438 " fill-opacity="1" fill-rule="nonzero"/><path fill="rgb(100%, 100%, 100%)" d="M 140.695312 146.800781 L 140.695312 153.636719 L 155.75 153.636719 L 155.75 195.335938 L 170.941406 195.335938 L 170.941406 153.636719 L 185.652344 153.636719 L 185.652344 139.960938 L 140.695312 139.960938 Z M 140.695312 146.800781 " fill-opacity="1" fill-rule="nonzero"/><path fill="rgb(100%, 100%, 100%)" d="M 192.222656 167.648438 L 192.222656 195.335938 L 202.210938 195.335938 L 202.210938 175.949219 L 208.398438 175.949219 C 212.132812 175.949219 214.863281 175.921875 215.289062 175.882812 C 219.378906 175.472656 222.746094 173.949219 225.933594 171.058594 C 229.082031 168.199219 230.890625 164.777344 231.511719 160.472656 C 231.632812 159.644531 231.628906 156.269531 231.503906 155.40625 C 230.828125 150.582031 228.816406 147.058594 225.03125 144.023438 C 222.484375 141.984375 219.742188 140.753906 216.4375 140.152344 L 215.589844 139.996094 L 203.910156 139.976562 L 192.222656 139.960938 Z M 215.128906 149.167969 C 218.550781 150.058594 220.851562 152.5 221.554688 155.984375 C 221.734375 156.875 221.734375 159.140625 221.546875 159.996094 C 221.164062 161.820312 220.40625 163.253906 219.1875 164.460938 C 217.847656 165.785156 216.253906 166.582031 214.324219 166.867188 C 213.796875 166.949219 212.585938 166.96875 207.945312 166.96875 L 202.210938 166.96875 L 202.210938 148.9375 L 208.320312 148.957031 L 214.425781 148.984375 Z M 215.128906 149.167969 " fill-opacity="1" fill-rule="nonzero"/><g clip-path="url(#id2)"><path fill="rgb(100%, 100%, 100%)" d="M 319.152344 147.617188 L 319.152344 155.269531 L 313.949219 155.269531 L 313.949219 163.976562 L 319.152344 163.976562 L 319.152344 195.335938 L 328.730469 195.335938 L 328.730469 163.976562 L 337.488281 163.976562 L 337.488281 155.269531 L 328.730469 155.269531 L 328.730469 139.960938 L 319.152344 139.960938 Z M 319.152344 147.617188 " fill-opacity="1" fill-rule="nonzero"/></g><path fill="rgb(100%, 100%, 100%)" d="M 254.660156 154.152344 C 254.550781 154.167969 254.121094 154.214844 253.703125 154.253906 C 250.347656 154.589844 246.988281 155.785156 244.15625 157.65625 C 242.800781 158.5625 241.835938 159.34375 240.667969 160.507812 C 237.847656 163.296875 236.070312 166.382812 235.152344 170.066406 C 233.949219 174.902344 234.515625 180.460938 236.648438 184.691406 C 238.847656 189.050781 242.898438 192.847656 247.40625 194.757812 C 251.390625 196.453125 256.132812 196.976562 260.648438 196.222656 C 265.089844 195.472656 268.90625 193.535156 272.203125 190.34375 C 274.09375 188.507812 275.40625 186.71875 276.496094 184.488281 C 277.382812 182.65625 277.980469 180.699219 278.308594 178.535156 C 278.453125 177.589844 278.472656 177.25 278.472656 175.304688 C 278.464844 173.390625 278.445312 173.003906 278.316406 172.140625 C 277.691406 168.160156 276.296875 165.015625 273.839844 162.058594 C 273.21875 161.308594 271.644531 159.746094 270.875 159.113281 C 267.605469 156.410156 264.0625 154.882812 259.6875 154.277344 C 258.945312 154.171875 255.1875 154.078125 254.660156 154.152344 Z M 257.808594 162.820312 C 260.960938 163.121094 263.4375 164.34375 265.667969 166.710938 C 266.574219 167.664062 267.128906 168.460938 267.695312 169.589844 C 268.597656 171.398438 268.996094 173.125 268.996094 175.296875 C 268.996094 178.316406 268.175781 180.832031 266.4375 183.125 C 265.957031 183.765625 264.617188 185.113281 264.035156 185.546875 C 263.433594 186.003906 261.898438 186.894531 261.515625 187.015625 C 261.488281 187.03125 261.367188 187.078125 261.234375 187.132812 C 260.949219 187.25 259.933594 187.554688 259.65625 187.609375 C 259.546875 187.628906 259.339844 187.664062 259.210938 187.675781 C 259.082031 187.699219 258.859375 187.746094 258.730469 187.785156 C 258.582031 187.832031 257.78125 187.847656 256.542969 187.832031 C 254.753906 187.804688 254.523438 187.785156 253.761719 187.628906 C 250.070312 186.832031 247.222656 184.699219 245.53125 181.453125 C 244.855469 180.160156 244.476562 179.050781 244.210938 177.582031 C 244.066406 176.757812 244.089844 173.71875 244.253906 172.855469 C 244.792969 169.921875 246.332031 167.332031 248.671875 165.40625 C 251.0625 163.4375 254.378906 162.5 257.808594 162.820312 Z M 257.808594 162.820312 " fill-opacity="1" fill-rule="nonzero"/><path fill="rgb(100%, 100%, 100%)" d="M 305.773438 154.527344 C 303.050781 154.65625 300.519531 155.460938 298.464844 156.855469 C 297.199219 157.710938 295.804688 159.253906 295.125 160.542969 L 294.824219 161.113281 L 294.792969 158.207031 L 294.757812 155.304688 L 285.246094 155.304688 L 285.226562 175.316406 L 285.210938 195.335938 L 294.785156 195.335938 L 294.8125 183.894531 C 294.832031 173.617188 294.847656 172.390625 294.949219 171.914062 C 295.46875 169.4375 296.316406 167.804688 297.84375 166.351562 C 298.179688 166.03125 298.683594 165.617188 298.964844 165.425781 C 300.121094 164.648438 301.660156 164.042969 303.140625 163.773438 C 304.652344 163.492188 307.082031 163.519531 308.941406 163.828125 L 309.640625 163.949219 L 309.640625 154.738281 L 309.484375 154.699219 C 308.851562 154.542969 307.175781 154.464844 305.773438 154.527344 Z M 305.773438 154.527344 " fill-opacity="1" fill-rule="nonzero"/></svg>